<?xml version="1.0" encoding="UTF-8"?><svg id="Layer_1" xmlns="http://www.w3.org/2000/svg" viewBox="0 0 87 63"><defs><style>.cls-1{fill:#fff;}.cls-1,.cls-2{stroke-width:0px;}.cls-2{fill:#2940e5;}</style></defs><rect class="cls-2" x="8" y="5" width="74" height="51" rx="4.33" ry="4.33"/><path class="cls-1" d="m14.75,50.21v.95h-.56v-2.69h1.05c.2,0,.38.04.53.11.15.07.27.18.35.32.08.14.12.29.12.46,0,.26-.09.47-.27.62-.18.15-.43.23-.75.23h-.49Zm0-.45h.5c.15,0,.26-.03.34-.1.08-.07.12-.17.12-.3s-.04-.24-.12-.32c-.08-.08-.19-.12-.32-.12h-.51v.84Z"/><path class="cls-1" d="m17.64,50.17h-.44v.99h-.56v-2.69h1c.32,0,.56.07.74.21.17.14.26.34.26.6,0,.18-.04.34-.12.46-.08.12-.2.22-.36.29l.58,1.1v.03h-.6l-.5-.99Zm-.44-.45h.45c.14,0,.25-.04.32-.11.08-.07.11-.17.11-.29s-.04-.23-.11-.3c-.07-.07-.18-.11-.33-.11h-.45v.81Z"/><path class="cls-1" d="m21.27,49.87c0,.26-.05.5-.14.7-.09.2-.23.35-.4.46s-.37.16-.6.16-.42-.05-.6-.16c-.17-.11-.31-.26-.41-.46-.1-.2-.15-.43-.15-.69v-.13c0-.26.05-.5.14-.7.1-.2.23-.36.41-.46.17-.11.37-.16.6-.16s.42.05.6.16c.17.11.31.26.4.46.1.2.14.43.14.7v.12Zm-.56-.12c0-.28-.05-.5-.15-.64-.1-.15-.25-.22-.43-.22s-.33.07-.43.22c-.1.14-.15.36-.15.64v.13c0,.27.05.49.15.64s.25.23.44.23.33-.07.43-.22c.1-.15.15-.36.15-.64v-.13Z"/><path class="cls-1" d="m23.89,49.87c0,.26-.05.5-.14.7-.09.2-.23.35-.4.46s-.37.16-.6.16-.42-.05-.6-.16c-.17-.11-.31-.26-.41-.46-.1-.2-.15-.43-.15-.69v-.13c0-.26.05-.5.14-.7.1-.2.23-.36.41-.46.17-.11.37-.16.6-.16s.42.05.6.16c.17.11.31.26.4.46.1.2.14.43.14.7v.12Zm-.56-.12c0-.28-.05-.5-.15-.64-.1-.15-.25-.22-.43-.22s-.33.07-.43.22c-.1.14-.15.36-.15.64v.13c0,.27.05.49.15.64s.25.23.44.23.33-.07.43-.22c.1-.15.15-.36.15-.64v-.13Z"/><path class="cls-1" d="m25.91,50.06h-1.07v1.1h-.56v-2.69h1.75v.45h-1.2v.7h1.07v.45Z"/><path class="cls-1" d="m29.52,49.87c0,.26-.05.5-.14.7-.09.2-.23.35-.4.46s-.37.16-.6.16-.42-.05-.6-.16c-.17-.11-.31-.26-.41-.46-.1-.2-.15-.43-.15-.69v-.13c0-.26.05-.5.14-.7.1-.2.23-.36.41-.46.17-.11.37-.16.6-.16s.42.05.6.16c.17.11.31.26.4.46.1.2.14.43.14.7v.12Zm-.56-.12c0-.28-.05-.5-.15-.64-.1-.15-.25-.22-.43-.22s-.33.07-.43.22c-.1.14-.15.36-.15.64v.13c0,.27.05.49.15.64s.25.23.44.23.33-.07.43-.22c.1-.15.15-.36.15-.64v-.13Z"/><path class="cls-1" d="m31.54,50.06h-1.07v1.1h-.56v-2.69h1.75v.45h-1.2v.7h1.07v.45Z"/><path class="cls-1" d="m35.15,49.87c0,.26-.05.5-.14.7-.09.2-.23.35-.4.46s-.37.16-.6.16-.42-.05-.6-.16c-.17-.11-.31-.26-.41-.46-.1-.2-.15-.43-.15-.69v-.13c0-.26.05-.5.14-.7.1-.2.23-.36.41-.46.17-.11.37-.16.6-.16s.42.05.6.16c.17.11.31.26.4.46.1.2.14.43.14.7v.12Zm-.56-.12c0-.28-.05-.5-.15-.64-.1-.15-.25-.22-.43-.22s-.33.07-.43.22c-.1.14-.15.36-.15.64v.13c0,.27.05.49.15.64s.25.23.44.23.33-.07.43-.22c.1-.15.15-.36.15-.64v-.13Z"/><path class="cls-1" d="m37.65,50.38l.36-1.92h.55l-.6,2.69h-.56l-.44-1.8-.44,1.8h-.56l-.6-2.69h.55l.36,1.91.44-1.91h.47l.44,1.92Z"/><path class="cls-1" d="m41.06,51.16h-.55l-1.08-1.77v1.77h-.56v-2.69h.56l1.08,1.78v-1.78h.55v2.69Z"/><path class="cls-1" d="m43.16,49.99h-1.07v.73h1.25v.45h-1.81v-2.69h1.8v.45h-1.25v.64h1.07v.43Z"/><path class="cls-1" d="m44.67,50.17h-.44v.99h-.56v-2.69h1c.32,0,.56.07.74.21.17.14.26.34.26.6,0,.18-.04.34-.12.46-.08.12-.2.22-.36.29l.58,1.1v.03h-.6l-.5-.99Zm-.44-.45h.45c.14,0,.25-.04.32-.11.08-.07.11-.17.11-.29s-.04-.23-.11-.3c-.07-.07-.18-.11-.33-.11h-.45v.81Z"/><path class="cls-1" d="m47.49,50.45c0-.11-.04-.19-.11-.24-.07-.06-.21-.12-.4-.18-.19-.06-.34-.12-.46-.18-.31-.17-.46-.39-.46-.67,0-.15.04-.28.12-.39.08-.11.2-.2.35-.27.15-.06.33-.1.52-.1s.36.03.51.1c.15.07.27.17.35.29.08.13.12.27.12.43h-.55c0-.12-.04-.22-.12-.29-.08-.07-.19-.1-.33-.1s-.24.03-.32.09c-.08.06-.11.13-.11.23,0,.09.04.16.13.22.09.06.22.11.39.17.32.09.55.21.69.35.14.14.22.32.22.53,0,.23-.09.42-.26.55-.18.13-.41.2-.71.2-.21,0-.4-.04-.57-.11-.17-.08-.3-.18-.39-.31s-.13-.28-.13-.46h.56c0,.3.18.45.53.45.13,0,.24-.03.31-.08.07-.05.11-.13.11-.22Z"/><path class="cls-1" d="m50.61,51.16h-.55v-1.15h-1.08v1.15h-.56v-2.69h.56v1.09h1.08v-1.09h.55v2.69Z"/><path class="cls-1" d="m51.69,51.16h-.56v-2.69h.56v2.69Z"/><path class="cls-1" d="m52.76,50.21v.95h-.56v-2.69h1.05c.2,0,.38.04.53.11.15.07.27.18.35.32.08.14.12.29.12.46,0,.26-.09.47-.27.62-.18.15-.43.23-.75.23h-.49Zm0-.45h.5c.15,0,.26-.03.34-.1.08-.07.12-.17.12-.3s-.04-.24-.12-.32c-.08-.08-.19-.12-.32-.12h-.51v.84Z"/><path class="cls-1" d="m55.48,50.43c0-.12.03-.24.1-.35.07-.11.2-.22.38-.35-.08-.11-.14-.21-.19-.3-.05-.09-.07-.19-.07-.29,0-.21.07-.38.2-.51.13-.13.31-.2.54-.2.2,0,.37.06.5.18.13.12.19.27.19.45,0,.21-.11.4-.33.57l-.21.15.46.54c.07-.14.11-.3.11-.47h.46c0,.35-.08.63-.24.85l.4.47h-.61l-.14-.16c-.2.13-.43.2-.68.2s-.48-.07-.64-.21c-.16-.14-.24-.32-.24-.55Zm.91.33c.13,0,.25-.04.36-.11l-.53-.61-.04.03c-.11.09-.17.2-.17.33,0,.11.03.19.1.26.07.07.16.1.27.1Zm-.2-1.64c0,.09.05.21.16.35l.14-.09c.07-.05.12-.09.15-.14.03-.04.04-.1.04-.16s-.02-.12-.07-.16c-.05-.05-.1-.07-.18-.07-.08,0-.14.02-.18.07-.05.05-.07.11-.07.2Z"/><path class="cls-1" d="m59.57,50.71h1.18v.45h-1.73v-2.69h.56v2.25Z"/><path class="cls-1" d="m62.69,49.99h-1.07v.73h1.25v.45h-1.81v-2.69h1.8v.45h-1.25v.64h1.07v.43Z"/><path class="cls-1" d="m64.72,50.6h-.97l-.19.55h-.59l1-2.69h.51l1.01,2.69h-.59l-.19-.55Zm-.82-.45h.67l-.34-1.01-.33,1.01Z"/><path class="cls-1" d="m66.74,50.17h-.44v.99h-.56v-2.69h1c.32,0,.56.07.74.21.17.14.26.34.26.6,0,.18-.04.34-.12.46-.08.12-.2.22-.36.29l.58,1.1v.03h-.6l-.5-.99Zm-.44-.45h.45c.14,0,.25-.04.32-.11.08-.07.11-.17.11-.29s-.04-.23-.11-.3c-.07-.07-.18-.11-.33-.11h-.45v.81Z"/><path class="cls-1" d="m70.35,51.16h-.55l-1.08-1.77v1.77h-.56v-2.69h.56l1.08,1.78v-1.78h.55v2.69Z"/><path class="cls-1" d="m71.43,51.16h-.56v-2.69h.56v2.69Z"/><path class="cls-1" d="m74.13,51.16h-.55l-1.08-1.77v1.77h-.56v-2.69h.56l1.08,1.78v-1.78h.55v2.69Z"/><path class="cls-1" d="m76.75,50.82c-.1.12-.24.21-.42.28-.18.07-.38.1-.61.1s-.44-.05-.61-.15c-.18-.1-.31-.25-.41-.44s-.14-.42-.15-.68v-.18c0-.27.05-.5.14-.7.09-.2.22-.35.39-.45.17-.1.37-.16.6-.16.32,0,.57.08.75.23.18.15.29.37.32.67h-.54c-.02-.15-.08-.27-.16-.34-.08-.07-.2-.11-.35-.11-.19,0-.33.07-.43.21-.1.14-.15.35-.15.63v.17c0,.28.05.5.16.64s.26.22.47.22.36-.04.45-.13v-.46h-.5v-.41h1.06v1.08Z"/><path class="cls-1" d="m66.99,11.26h-5.95c-.59,0-1.08.48-1.08,1.08v3.52c-.24-.36-.51-.69-.78-1.01-.48-.58-1-1.12-1.56-1.62-.36-.32-.73-.61-1.13-.89-2.39-1.64-5.15-2.46-8.28-2.46-2.92,0-5.53.71-7.81,2.12-.53.33-1.03.7-1.5,1.1-1,.85-1.87,1.86-2.6,2.95-.06.09-.12.17-.17.26-.18-.26-.36-.53-.56-.77-.94-1.13-2.13-2.05-3.57-2.74-1.89-.9-4.05-1.35-6.5-1.35h-9.43c-1.15.71-1.8,1.51-1.8,2.39v24.75c0,1.56,2.2,3.25,5.43,4.89h.74v-10.87h4.93s.05,0,.08,0c-.1.28-.19.57-.27.87-.2.79-.31,1.63-.31,2.54v.89c.03,1.49.33,2.81.92,3.96.58,1.15,1.39,2.03,2.44,2.65,1.04.62,2.24.93,3.58.93s2.54-.32,3.6-.96c.92-.56,1.64-1.33,2.19-2.3.08-.15.17-.28.25-.44.06-.12.1-.25.15-.37.22.22.44.43.68.64.61.54,1.25,1.04,1.96,1.46,2.22,1.32,4.76,1.98,7.63,1.98,3.03,0,5.7-.76,8.04-2.28,1.21-.79,2.27-1.8,3.16-2.94.18-.22.35-.46.51-.7v4.33h13.08c2.59-1.45,4.28-2.91,4.28-4.28v-1.95h-9.25V12.33c0-.59-.48-1.08-1.08-1.08Zm-41.5,15.4h-5.06v-9.24h5.15c1.39.01,2.49.47,3.3,1.36.81.89,1.21,2.09,1.21,3.59,0,1.36-.39,2.42-1.18,3.17-.78.75-1.93,1.12-3.42,1.12Zm9.32,10.08c0,.25-.02.47-.03.7-.08,1.19-.32,2.14-.76,2.83-.52.82-1.26,1.23-2.22,1.23-1.01,0-1.78-.42-2.29-1.25-.51-.83-.77-2.02-.77-3.57v-1.16c.05-.97.2-1.77.44-2.41.15-.4.35-.73.58-1.01.49-.58,1.16-.88,2.02-.88.15,0,.28.03.42.05.25.03.48.1.69.19.15.07.29.15.43.25.22.16.42.35.6.6.04.05.08.09.12.14.44.69.69,1.66.76,2.89.01.22.03.44.03.68v.73Zm19.86-8.73c-.02,3.27-.58,5.77-1.69,7.51-1.11,1.74-2.69,2.61-4.74,2.61-2.16,0-3.78-.89-4.88-2.66-1.09-1.77-1.64-4.31-1.64-7.61l.02-2.47c.23-6.1,2.38-9.15,6.45-9.15,2.08,0,3.68.87,4.8,2.6,1.12,1.73,1.68,4.27,1.68,7.62v1.55Z"/></svg>