<svg xmlns="http://www.w3.org/2000/svg" xmlns:xlink="http://www.w3.org/1999/xlink" width="250" zoomAndPan="magnify" viewBox="0 0 187.5 187.499992" height="250" preserveAspectRatio="xMidYMid meet" version="1.0"><defs><filter x="0%" y="0%" width="100%" height="100%" id="b83e561d45"><feColorMatrix values="0 0 0 0 1 0 0 0 0 1 0 0 0 0 1 0 0 0 1 0" color-interpolation-filters="sRGB"/></filter><g/><mask id="51b4cf115f"><g filter="url(#b83e561d45)"><rect x="-18.75" width="225" fill="#000000" y="-18.749999" height="224.99999" fill-opacity="0.74"/></g></mask><clipPath id="56a074468b"><path d="M 0.238281 0.710938 L 36 0.710938 L 36 33.503906 L 0.238281 33.503906 Z M 0.238281 0.710938 " clip-rule="nonzero"/></clipPath><clipPath id="fe529f302f"><rect x="0" width="37" y="0" height="34"/></clipPath><mask id="bf79cee65c"><g filter="url(#b83e561d45)"><rect x="-18.75" width="225" fill="#000000" y="-18.749999" height="224.99999" fill-opacity="0.74"/></g></mask><clipPath id="84df21b7ee"><path d="M 1 0.238281 L 42 0.238281 L 42 36 L 1 36 Z M 1 0.238281 " clip-rule="nonzero"/></clipPath><clipPath id="f6f30bed33"><rect x="0" width="43" y="0" height="37"/></clipPath><clipPath id="9c47621dee"><path d="M 70 27.226562 L 85 27.226562 L 85 42 L 70 42 Z M 70 27.226562 " clip-rule="nonzero"/></clipPath><clipPath id="8d95c3a390"><path d="M 48 27.226562 L 63 27.226562 L 63 42 L 48 42 Z M 48 27.226562 " clip-rule="nonzero"/></clipPath><clipPath id="4dea8df98e"><path d="M 83 42 L 114.742188 42 L 114.742188 100 L 83 100 Z M 83 42 " clip-rule="nonzero"/></clipPath><clipPath id="e070825923"><path d="M 91 27.226562 L 106 27.226562 L 106 42 L 91 42 Z M 91 27.226562 " clip-rule="nonzero"/></clipPath></defs><path fill="#ffffff" d="M 0 0 L 187 0 L 187 187 L 0 187 Z M 0 0 " fill-opacity="1" fill-rule="nonzero"/><path fill="#ffffff" d="M 0 0 L 187 0 L 187 187 L 0 187 Z M 0 0 " fill-opacity="1" fill-rule="nonzero"/><path fill="#44659f" d="M 159.707031 155.226562 C 159.707031 107.0625 158.984375 59.480469 158.9375 11.21875 C 149.605469 11.273438 139.957031 11.289062 131.019531 11.289062 C 108.441406 11.289062 85.753906 10.898438 63.070312 10.898438 C 55.039062 10.898438 47.554688 11.289062 39.710938 11.289062 C 34.421875 11.289062 28.164062 10.761719 22.488281 11.179688 C 22.628906 55.242188 24.023438 100.449219 24.023438 144.644531 C 24.023438 155.273438 24.265625 164.265625 24.363281 174.863281 C 69.113281 174.722656 114.617188 175.570312 160.480469 173.917969 C 160.480469 173.917969 159.707031 155.226562 159.707031 155.226562 Z M 149.984375 115.757812 C 150.085938 129.996094 150.269531 140.429688 150.5625 140.410156 C 144.128906 140.863281 137.195312 140.226562 131.015625 140.570312 C 111.457031 141.652344 90.71875 141.734375 71.148438 140.851562 C 59.636719 140.332031 46.15625 140.789062 34.484375 140.371094 C 34.476562 140.371094 34.511719 137.894531 34.511719 137.730469 C 34.714844 115.445312 34.132812 93.152344 33.769531 70.867188 C 33.589844 59.941406 33.40625 49.015625 33.238281 38.089844 C 33.21875 36.847656 31.996094 23.269531 33.058594 22.753906 C 39.308594 22.957031 45.671875 22.71875 50.300781 22.699219 C 59.6875 22.652344 68.792969 23.023438 78.113281 22.980469 C 78.113281 22.980469 140.46875 22.683594 140.46875 22.683594 C 143.863281 22.667969 147.253906 23.023438 150.617188 23.253906 C 150.511719 28.578125 150.261719 35.398438 150.152344 37.910156 C 149.90625 43.449219 149.777344 87.234375 149.984375 115.757812 Z M 149.984375 115.757812 " fill-opacity="1" fill-rule="nonzero"/><path fill="#ffe45f" d="M 144.015625 160.199219 C 143.761719 160.09375 143.785156 158.710938 143.71875 158.363281 C 143.449219 158.722656 143.054688 159.515625 142.710938 159.703125 C 142.554688 159.789062 141.257812 159.738281 141.144531 159.59375 C 141.398438 159.917969 141.648438 160.242188 141.898438 160.566406 C 141.957031 160.640625 142.015625 160.722656 142.027344 160.824219 C 142.039062 160.898438 142.015625 160.980469 141.992188 161.054688 C 141.84375 161.550781 141.695312 162.050781 141.550781 162.550781 C 141.886719 162.398438 142.226562 162.246094 142.566406 162.09375 C 142.707031 162.035156 142.847656 161.972656 142.996094 161.992188 C 143.160156 162.011719 143.300781 162.136719 143.433594 162.253906 C 143.769531 162.550781 144.101562 162.847656 144.433594 163.148438 C 144.382812 162.570312 144.328125 161.992188 144.277344 161.417969 C 144.65625 161.242188 145.023438 161.015625 145.363281 160.742188 C 144.914062 160.5625 144.464844 160.378906 144.015625 160.199219 Z M 144.015625 160.199219 " fill-opacity="1" fill-rule="nonzero"/><path fill="#ffe45f" d="M 132.828125 165.824219 C 132.574219 166.101562 132.070312 165.914062 131.757812 166.128906 C 131.972656 166.230469 132.1875 166.328125 132.402344 166.429688 C 132.476562 166.46875 132.5625 166.507812 132.59375 166.585938 C 132.625 166.65625 132.605469 166.734375 132.589844 166.808594 C 132.511719 167.113281 132.4375 167.421875 132.363281 167.726562 C 132.644531 167.492188 132.925781 167.257812 133.207031 167.019531 C 133.269531 166.96875 133.335938 166.914062 133.417969 166.914062 C 133.507812 166.910156 133.585938 166.976562 133.652344 167.03125 C 133.945312 167.269531 134.28125 167.453125 134.636719 167.566406 C 134.484375 167.085938 134.300781 166.613281 134.089844 166.152344 C 134.414062 165.914062 134.6875 165.605469 134.886719 165.253906 C 134.46875 165.351562 134.050781 165.449219 133.632812 165.546875 C 133.574219 165.558594 133.511719 165.570312 133.464844 165.542969 C 133.414062 165.515625 133.394531 165.453125 133.378906 165.402344 C 133.304688 165.171875 133.273438 164.921875 133.179688 164.703125 C 133.140625 164.921875 133.058594 165.121094 133.007812 165.332031 C 132.964844 165.503906 132.957031 165.683594 132.828125 165.824219 Z M 132.828125 165.824219 " fill-opacity="1" fill-rule="nonzero"/><path fill="#ffe45f" d="M 147.421875 148.675781 C 146.867188 148.820312 146.027344 148.6875 145.59375 148.605469 C 145.921875 149.179688 147.160156 150.101562 147.007812 150.730469 C 146.867188 151.300781 146.726562 151.871094 146.589844 152.4375 C 147.109375 152 147.632812 151.5625 148.15625 151.125 C 148.269531 151.03125 148.398438 150.925781 148.550781 150.925781 C 148.71875 150.921875 148.859375 151.042969 148.988281 151.148438 C 149.527344 151.59375 150.152344 151.929688 150.816406 152.140625 C 150.53125 151.246094 150.191406 150.367188 149.800781 149.515625 C 150.402344 149.066406 150.910156 148.496094 151.277344 147.839844 C 151.3125 147.769531 149.480469 148.515625 149.429688 148.511719 C 148.816406 148.453125 148.550781 147.332031 148.285156 146.78125 C 148.335938 146.890625 147.929688 148.367188 147.804688 148.484375 C 147.707031 148.574219 147.574219 148.636719 147.421875 148.675781 Z M 147.421875 148.675781 " fill-opacity="1" fill-rule="nonzero"/><path stroke-linecap="butt" transform="matrix(0.775207, -0.0135313, 0.0135313, 0.775207, 22.575641, 137.424622)" fill="none" stroke-linejoin="miter" d="M 2.043248 -12.948275 C 0.288671 -15.48831 -4.228519 -16.801706 -7.439538 -14.42393 C -14.152578 -9.451744 -6.055332 -2.789974 -1.23038 -0.0552537 C 2.052865 1.800969 7.141069 3.310775 9.321505 6.568738 C 14.154102 13.773162 3.17171 16.801367 2.333505 12.281894 " stroke="#ffe45f" stroke-width="3" stroke-opacity="1" stroke-miterlimit="10"/><path stroke-linecap="butt" transform="matrix(0.775207, -0.0135313, 0.0135313, 0.775207, 57.459817, 131.075869)" fill="none" stroke-linejoin="miter" d="M -5.039399 -9.996714 C 2.464588 -20.155316 10.141584 -8.759207 4.096631 -0.202727 C 1.482356 3.495598 -10.143252 11.329836 -5.392286 16.859895 C -2.552385 20.154564 -0.236161 15.921944 1.539854 14.058291 " stroke="#ffe45f" stroke-width="3" stroke-opacity="1" stroke-miterlimit="10"/><path fill="#ffe45f" d="M 42.605469 148.949219 C 42.265625 149.019531 41.9375 149.078125 41.628906 149.113281 C 41.578125 150.230469 42.164062 151.503906 42.316406 152.652344 C 42.535156 154.273438 43.59375 157.855469 42.511719 159.261719 C 41.769531 160.226562 39.503906 161.0625 38.375 161.589844 C 38.457031 162.722656 38.796875 163.71875 39.089844 164.800781 C 39.25 165.390625 50.664062 163.078125 51.816406 162.851562 C 51.730469 161.730469 51.847656 160.386719 51.515625 159.328125 C 49.914062 159.410156 48.433594 159.199219 47.203125 158.125 C 45.851562 156.953125 45.753906 155.039062 45.535156 153.335938 C 45.355469 151.929688 44.988281 150.09375 45.300781 148.710938 C 44.472656 148.542969 43.503906 148.769531 42.605469 148.949219 Z M 42.605469 148.949219 " fill-opacity="1" fill-rule="nonzero"/><path fill="#ffe45f" d="M 55.378906 116.863281 C 55.726562 122.066406 54.675781 129.363281 54.09375 133.371094 C 52.484375 144.386719 45.832031 155.515625 34.90625 146.90625 C 27.027344 140.707031 23.148438 131.289062 21.523438 121.601562 C 27.53125 119.414062 34.652344 118.667969 40.59375 117.890625 C 44.972656 117.3125 49.695312 116.710938 54.105469 116.785156 C 54.527344 116.792969 54.953125 116.824219 55.378906 116.863281 Z M 55.378906 116.863281 " fill-opacity="1" fill-rule="nonzero"/><path fill="#ffb655" d="M 33.980469 131.636719 C 35.453125 132.59375 36.800781 133.09375 38.222656 134.070312 C 38.472656 134.242188 38.214844 138.292969 38.328125 138.859375 C 38.8125 138.59375 41.742188 135.125 41.722656 135.105469 C 42.859375 136.035156 44.300781 136.941406 45.757812 137.332031 C 44.96875 135.699219 44.378906 133.792969 43.847656 132.058594 C 44.847656 130.921875 45.957031 129.859375 46.929688 128.738281 C 45.175781 128.835938 43.613281 129.511719 41.878906 129.703125 C 41.722656 129.722656 39.800781 126.167969 39.652344 125.882812 C 39.90625 126.367188 39.074219 127.757812 38.902344 128.253906 C 38.636719 129.007812 38.519531 129.769531 38.308594 130.542969 C 36.964844 131.21875 35.394531 131.199219 33.980469 131.636719 Z M 33.980469 131.636719 " fill-opacity="1" fill-rule="nonzero"/><g mask="url(#51b4cf115f)"><g transform="matrix(1, 0, 0, 1, 135, 152)"><g clip-path="url(#fe529f302f)"><g clip-path="url(#56a074468b)"><path fill="#fff6d3" d="M 30.179688 1.066406 C 20.386719 9.570312 10.589844 18.078125 0.792969 26.582031 C 2.882812 26.753906 4.972656 26.921875 7.066406 27.09375 C 6.664062 29.160156 6.261719 31.226562 5.863281 33.292969 C 15.761719 24.84375 25.664062 16.394531 35.566406 7.945312 C 33.425781 7.703125 31.285156 7.464844 29.140625 7.222656 C 29.585938 5.144531 30.027344 3.070312 30.472656 0.996094 C 30.007812 2.070312 29.542969 3.144531 29.082031 4.21875 " fill-opacity="1" fill-rule="nonzero"/></g></g></g></g><g mask="url(#bf79cee65c)"><g transform="matrix(1, 0, 0, 1, 7, 0)"><g clip-path="url(#f6f30bed33)"><g clip-path="url(#84df21b7ee)"><path fill="#fff6d3" d="M 6.8125 35.316406 C 18.425781 26.449219 30.039062 17.585938 41.652344 8.71875 C 39.316406 8.378906 36.976562 8.042969 34.640625 7.703125 C 35.238281 5.40625 35.835938 3.109375 36.429688 0.816406 C 36.429688 0.816406 1.246094 27.199219 1.246094 27.199219 C 3.636719 27.625 6.027344 28.046875 8.417969 28.472656 C 7.769531 30.769531 7.125 33.070312 6.480469 35.371094 C 7.078125 34.199219 7.675781 33.023438 8.273438 31.847656 " fill-opacity="1" fill-rule="nonzero"/></g></g></g></g><path fill="#9ed1d2" d="M 127.601562 15.90625 C 127.265625 19.417969 127.164062 22.296875 127.03125 26.25 C 126.96875 28.058594 126.875 29.988281 127.058594 31.78125 C 127.183594 33.03125 127.105469 35.078125 127.875 35.9375 C 129.144531 37.359375 130.808594 38.105469 132.179688 39.359375 C 133.730469 40.78125 135.246094 42.40625 136.722656 43.964844 C 137.890625 45.199219 137.769531 45.773438 139.101562 44.3125 C 141.238281 41.964844 143.574219 39.589844 146.054688 37.90625 C 146.617188 37.527344 147.398438 37.121094 148.109375 36.300781 C 148.371094 36 148.789062 34.695312 148.851562 34.269531 C 149.109375 32.574219 149.089844 30.632812 149.140625 28.914062 C 149.273438 24.691406 149.53125 21.136719 149.632812 16.96875 C 146.894531 15.773438 143.6875 16.671875 140.847656 16.238281 C 137.660156 15.75 134.398438 15.257812 131.175781 15.375 C 129.957031 15.421875 128.777344 15.851562 127.601562 15.90625 Z M 127.601562 15.90625 " fill-opacity="1" fill-rule="nonzero"/><path stroke-linecap="butt" transform="matrix(0.26361, 0, 0, 0.363782, 130.726793, 27.666193)" fill="none" stroke-linejoin="miter" d="M 0.725221 -31.59671 C 0.99195 -31.263836 1.066042 -29.255851 0.814131 -24.380852 C 0.236218 -13.761085 0.0287623 -2.217859 -0.875153 8.434122 C -1.260428 12.986985 -2.01616 25.23891 -2.845984 27.214681 " stroke="#fff6d3" stroke-width="5" stroke-opacity="1" stroke-miterlimit="10"/><path stroke-linecap="butt" transform="matrix(0.26361, 0, 0, 0.363782, 136.404445, 30.958418)" fill="none" stroke-linejoin="miter" d="M 0.24394 -41.613113 C 0.199485 -40.303091 -1.860256 -33.581176 -2.141803 -26.988115 C -2.630806 -15.380462 -3.786632 -4.266752 -4.112634 7.373114 C -4.483091 20.462595 -2.42335 28.816668 -4.305272 31.232692 " stroke="#fff6d3" stroke-width="5" stroke-opacity="1" stroke-miterlimit="10"/><path stroke-linecap="butt" transform="matrix(0.26361, 0, 0, 0.363782, 141.263296, 31.036995)" fill="none" stroke-linejoin="miter" d="M -1.650811 -40.851966 C -1.472991 -39.778178 -2.895546 -32.3583 -2.791818 -26.57058 C -2.613999 -16.251474 -3.992099 -5.384735 -3.72537 4.945109 C -3.354913 18.657387 -4.347738 30.222088 -2.851091 32.101218 " stroke="#fff6d3" stroke-width="5" stroke-opacity="1" stroke-miterlimit="10"/><path stroke-linecap="butt" transform="matrix(0.26361, 0, 0, 0.363782, 146.881617, 30.79981)" fill="none" stroke-linejoin="miter" d="M -2.988757 -40.081852 C -2.796119 -37.375905 -2.455299 -31.094243 -2.514572 -25.199145 C -2.544209 -22.750907 -3.077667 -15.502836 -3.04803 -11.851955 C -3.04803 -10.25201 -3.418487 -5.119302 -3.270304 -4.679048 C -3.418487 -2.123432 -5.418955 17.247711 -4.159401 19.824803 " stroke="#fff6d3" stroke-width="5" stroke-opacity="1" stroke-miterlimit="10"/><path fill="#ffe45f" d="M 150.40625 15.421875 C 150.433594 16.527344 151.242188 18.328125 150.191406 19.023438 C 149.277344 19.628906 146.957031 18.902344 145.945312 18.816406 C 143.648438 18.617188 141.410156 18.582031 139.109375 18.730469 C 136.457031 18.898438 133.871094 18.667969 131.234375 18.613281 C 129.582031 18.578125 127.558594 18.917969 125.976562 18.472656 C 125.738281 17.554688 125.890625 16.265625 126.105469 15.339844 C 128.664062 15.613281 131.5625 15.339844 134.183594 15.289062 C 139.5625 15.1875 145.046875 15.796875 150.40625 15.421875 Z M 150.40625 15.421875 " fill-opacity="1" fill-rule="nonzero"/><path fill="#ffe45f" d="M 127.855469 46.816406 C 125.441406 51.222656 127.371094 56.15625 131.515625 58.714844 C 135.046875 60.890625 139.785156 61.390625 143.324219 58.453125 C 147.042969 55.371094 147.671875 49.722656 145.289062 45.824219 C 143.773438 43.339844 141.996094 41.652344 139.222656 40.800781 C 138.113281 40.457031 136.625 40.550781 135.492188 40.8125 C 134.878906 40.957031 134.308594 41.144531 133.726562 41.371094 C 132.140625 41.992188 130.558594 42.953125 129.464844 44.257812 C 128.832031 45.015625 128.328125 45.949219 127.855469 46.816406 Z M 127.855469 46.816406 " fill-opacity="1" fill-rule="nonzero"/><path stroke-linecap="butt" transform="matrix(0.132223, 0.00692949, -0.00692949, 0.132223, 136.487807, 50.691074)" fill-opacity="1" fill="#ffe45f" fill-rule="nonzero" stroke-linejoin="miter" d="M 32.988408 -34.66676 C 31.839639 -35.729189 30.574565 -36.755979 29.25211 -37.75022 C 25.780846 -40.286253 22.031819 -41.92144 17.902749 -42.916307 C 12.995313 -44.106725 7.684672 -45.098754 2.614235 -45.453427 C -11.353495 -46.464445 -21.47555 -41.17755 -30.874784 -29.990398 C -40.60749 -18.401711 -48.34408 -1.983957 -42.560546 13.104834 C -35.163777 32.481441 -18.567541 46.442246 2.130266 45.652949 C 13.274646 45.216612 24.33089 43.662261 33.537034 36.119015 C 42.741634 28.546306 48.125014 16.269725 48.21912 4.536229 C 48.354372 -10.921838 43.908733 -24.721768 32.988408 -34.66676 Z M 32.988408 -34.66676 " stroke="#ffb655" stroke-width="10" stroke-opacity="1" stroke-miterlimit="4"/><path fill="#44659f" d="M 49.953125 41.941406 L 54.675781 41.941406 C 52.339844 41.632812 50.339844 40.136719 49.167969 38.183594 L 45.695312 37.433594 C 44.371094 37.15625 43.070312 37.996094 42.792969 39.320312 C 42.515625 40.648438 43.363281 41.945312 44.691406 42.222656 L 46.816406 42.664062 C 48.027344 42.035156 49.097656 41.925781 49.757812 41.90625 C 49.835938 41.902344 49.894531 41.941406 49.953125 41.941406 Z M 49.953125 41.941406 " fill-opacity="1" fill-rule="nonzero"/><path fill="#44659f" d="M 61.800781 41.941406 C 61.859375 41.941406 61.917969 41.902344 61.976562 41.90625 C 62.953125 41.929688 64.898438 42.21875 66.847656 44.050781 C 71.007812 47.960938 72.726562 56.644531 71.949219 69.886719 C 71.847656 71.667969 70.367188 73.058594 68.585938 73.058594 C 68.519531 73.058594 68.449219 73.054688 68.382812 73.050781 C 68.355469 73.050781 68.324219 73.042969 68.296875 73.039062 L 66.433594 95.867188 C 66.265625 97.957031 67.820312 99.785156 69.90625 99.957031 C 71.992188 100.125 73.824219 98.609375 73.992188 96.519531 L 76.273438 68.621094 L 78.417969 68.621094 L 80.699219 96.519531 C 80.867188 98.609375 82.699219 100.144531 84.785156 99.972656 C 86.871094 99.804688 88.425781 97.964844 88.257812 95.878906 L 86.394531 73.042969 C 86.363281 73.046875 86.335938 73.050781 86.304688 73.050781 C 86.238281 73.054688 86.171875 73.054688 86.105469 73.054688 C 84.324219 73.054688 82.84375 71.660156 82.738281 69.878906 C 81.964844 56.636719 83.683594 47.9375 87.84375 44.027344 C 89.777344 42.214844 91.703125 41.933594 92.691406 41.90625 C 92.773438 41.902344 92.832031 41.941406 92.890625 41.941406 L 97.613281 41.941406 C 96.386719 41.632812 95.257812 41.246094 94.289062 40.554688 L 83.160156 42.859375 L 71.53125 42.859375 L 60.402344 40.554688 C 59.433594 41.246094 58.304688 41.632812 57.078125 41.941406 Z M 61.800781 41.941406 " fill-opacity="1" fill-rule="nonzero"/><path fill="#44659f" d="M 100.015625 41.941406 L 104.738281 41.941406 C 104.796875 41.941406 104.855469 41.902344 104.914062 41.90625 C 105.566406 41.921875 106.648438 42.046875 107.875 42.683594 L 110 42.226562 C 111.328125 41.949219 112.175781 40.644531 111.898438 39.316406 C 111.621094 37.992188 110.320312 37.136719 108.992188 37.417969 L 105.523438 38.1875 C 104.351562 40.136719 102.351562 41.632812 100.015625 41.941406 Z M 100.015625 41.941406 " fill-opacity="1" fill-rule="nonzero"/><g clip-path="url(#9c47621dee)"><path fill="#44659f" d="M 77.347656 41.027344 C 81.15625 41.027344 84.246094 37.9375 84.246094 34.128906 C 84.246094 30.316406 81.15625 27.226562 77.347656 27.226562 C 73.535156 27.226562 70.445312 30.316406 70.445312 34.128906 C 70.445312 37.9375 73.535156 41.027344 77.347656 41.027344 Z M 81.648438 36.726562 C 80.757812 38.261719 79.164062 39.140625 77.34375 39.140625 C 75.527344 39.140625 73.933594 38.261719 73.042969 36.726562 Z M 81.648438 36.726562 " fill-opacity="1" fill-rule="nonzero"/></g><path fill="#44659f" d="M 40.722656 69.824219 C 40.796875 71.128906 41.878906 72.132812 43.167969 72.132812 C 43.21875 72.132812 43.265625 72.132812 43.316406 72.128906 C 44.667969 72.050781 45.757812 70.890625 45.679688 69.539062 C 45.050781 58.761719 46.167969 53.015625 47.699219 50.164062 L 47.699219 96.175781 C 47.699219 98.269531 49.289062 99.96875 51.378906 99.96875 C 53.476562 99.96875 55.0625 98.269531 55.0625 96.175781 L 55.0625 68.621094 L 56.59375 68.621094 L 56.59375 96.175781 C 56.59375 98.269531 58.335938 99.96875 60.429688 99.96875 C 62.523438 99.96875 64.261719 98.269531 64.261719 96.175781 L 64.261719 50.164062 C 65.488281 53.015625 66.808594 58.761719 66.179688 69.539062 C 66.101562 70.890625 67.109375 72.050781 68.460938 72.128906 C 68.511719 72.132812 68.546875 72.132812 68.597656 72.132812 C 69.886719 72.132812 70.960938 71.128906 71.039062 69.824219 C 71.796875 56.867188 70.171875 48.414062 66.21875 44.699219 C 64.496094 43.082031 62.8125 42.847656 61.949219 42.824219 C 61.902344 42.824219 61.851562 42.859375 61.800781 42.859375 L 49.953125 42.859375 C 49.902344 42.859375 49.851562 42.824219 49.800781 42.828125 C 48.9375 42.847656 47.257812 43.105469 45.539062 44.71875 C 41.585938 48.433594 39.964844 56.867188 40.722656 69.824219 Z M 40.722656 69.824219 " fill-opacity="1" fill-rule="nonzero"/><g clip-path="url(#8d95c3a390)"><path fill="#44659f" d="M 62.777344 34.128906 C 62.777344 30.316406 59.6875 27.226562 55.878906 27.226562 C 52.066406 27.226562 48.976562 30.316406 48.976562 34.128906 C 48.976562 37.9375 52.066406 41.027344 55.878906 41.027344 C 59.6875 41.027344 62.777344 37.9375 62.777344 34.128906 Z M 60.183594 36.726562 C 59.289062 38.261719 57.695312 39.140625 55.878906 39.140625 C 54.058594 39.140625 52.464844 38.261719 51.574219 36.726562 Z M 60.183594 36.726562 " fill-opacity="1" fill-rule="nonzero"/></g><g clip-path="url(#4dea8df98e)"><path fill="#44659f" d="M 92.738281 42.824219 C 91.871094 42.847656 90.195312 43.105469 88.476562 44.71875 C 84.519531 48.433594 82.902344 56.878906 83.660156 69.835938 C 83.734375 71.136719 84.816406 72.140625 86.105469 72.140625 C 86.152344 72.140625 86.203125 72.136719 86.25 72.132812 C 87.605469 72.054688 88.695312 70.890625 88.617188 69.539062 C 87.984375 58.761719 89.105469 53.015625 90.636719 50.164062 L 90.636719 96.175781 C 90.636719 98.273438 92.222656 99.96875 94.316406 99.96875 C 96.410156 99.96875 97.996094 98.269531 97.996094 96.175781 L 97.996094 68.621094 L 99.53125 68.621094 L 99.53125 96.175781 C 99.53125 98.273438 101.269531 99.96875 103.363281 99.96875 C 105.457031 99.96875 107.199219 98.269531 107.199219 96.175781 L 107.199219 50.164062 C 108.425781 53.015625 109.746094 58.761719 109.113281 69.539062 C 109.035156 70.890625 110.046875 72.050781 111.398438 72.128906 C 111.449219 72.132812 111.484375 72.132812 111.535156 72.132812 C 112.824219 72.132812 113.898438 71.128906 113.976562 69.824219 C 114.734375 56.867188 113.109375 48.414062 109.15625 44.699219 C 107.433594 43.082031 105.75 42.847656 104.886719 42.824219 C 104.839844 42.824219 104.789062 42.859375 104.738281 42.859375 L 92.890625 42.859375 C 92.839844 42.859375 92.789062 42.824219 92.738281 42.824219 Z M 92.738281 42.824219 " fill-opacity="1" fill-rule="nonzero"/></g><g clip-path="url(#e070825923)"><path fill="#44659f" d="M 105.714844 34.128906 C 105.714844 30.316406 102.625 27.226562 98.8125 27.226562 C 95.003906 27.226562 91.914062 30.316406 91.914062 34.128906 C 91.914062 37.9375 95.003906 41.027344 98.8125 41.027344 C 102.625 41.027344 105.714844 37.9375 105.714844 34.128906 Z M 94.507812 36.726562 L 103.117188 36.726562 C 102.226562 38.261719 100.632812 39.140625 98.8125 39.140625 C 96.996094 39.140625 95.402344 38.261719 94.507812 36.726562 Z M 94.507812 36.726562 " fill-opacity="1" fill-rule="nonzero"/></g><g fill="#ff00ff" fill-opacity="1"><g transform="translate(63.069827, 117.860704)"><g><path d="M 0.835938 -6.132812 C 1.070312 -6.152344 2.980469 -6.203125 4.089844 -6.25 C 4.097656 -4.019531 4.136719 -2.210938 4.253906 -0.738281 L 4.585938 -0.292969 L 6.972656 -0.0859375 C 6.972656 -0.0859375 7.058594 -3.039062 7.136719 -6.40625 C 9.054688 -6.503906 9.914062 -6.601562 10.875 -6.660156 C 11.070312 -7.898438 10.777344 -13.484375 10.710938 -14.390625 C 9.015625 -14.585938 2.445312 -15.101562 0.75 -14.886719 C 0.75 -14.886719 0.117188 -9.433594 0.835938 -6.132812 Z M 0.835938 -6.132812 "/></g></g></g><g fill="#ff00ff" fill-opacity="1"><g transform="translate(74.48024, 117.860704)"><g><path d="M 10.078125 -5.589844 C 11.148438 -7.457031 11.578125 -12.007812 11.226562 -14.644531 C 11.226562 -14.644531 7.207031 -15.160156 4.070312 -14.78125 C 3.699219 -14.730469 2.589844 -14.605469 2.21875 -14.46875 L 1.703125 -13.964844 C 1.703125 -13.964844 1.898438 -7.515625 2.0625 -0.242188 L 4.175781 -0.0976562 L 4.597656 -0.300781 L 4.597656 -5.132812 C 5.289062 -5.074219 5.851562 -4.976562 6.71875 -4.925781 L 9.835938 0.105469 C 9.824219 0.117188 10.144531 0.136719 10.164062 0.15625 L 10.214844 0.125 L 11.355469 -0.527344 C 12.035156 -1.082031 12.414062 -1.585938 13.078125 -2.210938 C 12.453125 -3.183594 10.078125 -5.589844 10.078125 -5.589844 Z M 7.097656 -10.085938 C 7.097656 -10.085938 7.332031 -8.511719 7.109375 -7.535156 C 7.109375 -7.535156 5.25 -7.324219 4.964844 -7.351562 C 4.683594 -7.324219 4.109375 -7.4375 4.109375 -7.4375 C 4.109375 -7.4375 3.992188 -8.128906 4.011719 -8.394531 C 3.984375 -8.65625 4.109375 -10.039062 4.109375 -10.039062 Z M 7.097656 -10.085938 "/></g></g></g><g fill="#ff00ff" fill-opacity="1"><g transform="translate(87.682049, 117.860704)"><g><path d="M 1.644531 -14.390625 C 1.1875 -9.804688 0.769531 -5.675781 0.527344 -0.691406 L 0.855469 -0.320312 L 5.539062 -0.0859375 L 5.6875 -3.085938 L 7.449219 -2.96875 C 7.820312 -0.410156 7.742188 -0.855469 7.917969 -0.222656 C 8.722656 -0.195312 10 -0.242188 10.703125 -0.242188 C 10.234375 -5.132812 9.53125 -9.542969 8.96875 -14.410156 C 8.023438 -14.5 4.070312 -14.984375 1.644531 -14.390625 Z M 5.132812 -5.578125 L 5.082031 -8.433594 C 5.082031 -8.433594 5.015625 -8.734375 7.34375 -8.570312 L 7.535156 -5.441406 Z M 5.132812 -5.578125 "/></g></g></g><g fill="#ff00ff" fill-opacity="1"><g transform="translate(98.946424, 117.860704)"><g><path d="M 11.988281 -7.371094 L 9.84375 -8.472656 C 10.066406 -8.695312 10.925781 -9.339844 11.148438 -9.5625 C 11.949219 -11.390625 11.03125 -14.441406 11.03125 -14.441406 L 9.875 -14.617188 C 8.519531 -14.636719 4.664062 -15.210938 1.9375 -14.480469 L 1.800781 -14.324219 C 1.773438 -14.292969 1.9375 -4.527344 1.957031 -0.566406 L 7.15625 -0.242188 L 11.109375 -0.339844 L 11.460938 -0.527344 C 12.960938 -4.382812 11.988281 -7.371094 11.988281 -7.371094 Z M 4.15625 -9.472656 C 3.953125 -10.234375 4.109375 -12.035156 4.109375 -12.035156 C 4.109375 -12.035156 6.144531 -12.171875 6.464844 -12.171875 C 7.15625 -11.429688 7 -10.242188 6.464844 -9.339844 Z M 4.597656 -3.933594 C 4.332031 -4.90625 4.539062 -7.265625 4.539062 -7.265625 C 4.539062 -7.265625 7.1875 -7.4375 7.59375 -7.4375 C 8.5 -6.464844 8.285156 -4.925781 7.59375 -3.757812 Z M 4.597656 -3.933594 "/></g></g></g><g fill="#ff00ff" fill-opacity="1"><g transform="translate(112.187176, 117.860704)"><g><path d="M 1.644531 -14.390625 C 1.1875 -9.804688 0.769531 -5.675781 0.527344 -0.691406 L 0.855469 -0.320312 L 5.539062 -0.0859375 L 5.6875 -3.085938 L 7.449219 -2.96875 C 7.820312 -0.410156 7.742188 -0.855469 7.917969 -0.222656 C 8.722656 -0.195312 10 -0.242188 10.703125 -0.242188 C 10.234375 -5.132812 9.53125 -9.542969 8.96875 -14.410156 C 8.023438 -14.5 4.070312 -14.984375 1.644531 -14.390625 Z M 5.132812 -5.578125 L 5.082031 -8.433594 C 5.082031 -8.433594 5.015625 -8.734375 7.34375 -8.570312 L 7.535156 -5.441406 Z M 5.132812 -5.578125 "/></g></g></g><g fill="#ff00ff" fill-opacity="1"><g transform="translate(123.451552, 117.860704)"><g><path d="M 6.855469 -11.0625 C 6.855469 -11.0625 7.273438 -10.972656 7.800781 -11.03125 C 7.847656 -8.472656 7.976562 -4.363281 7.976562 -4.363281 C 7.976562 -4.363281 5.269531 -4.011719 5.257812 -4.175781 L 5.074219 -7.128906 C 3.699219 -7.265625 3.203125 -7.265625 1.199219 -7.109375 C 1.023438 -4.90625 0.867188 -3.183594 1.21875 -0.527344 C 1.21875 -0.527344 4.75 0.183594 7.886719 -0.195312 C 8.257812 -0.242188 9.855469 -0.566406 10.222656 -0.699219 L 10.738281 -1.207031 C 10.738281 -1.207031 10.59375 -4.78125 10.449219 -10.449219 C 10.886719 -10.496094 11.304688 -10.535156 11.65625 -10.554688 C 11.851562 -11.792969 11.488281 -14.097656 11.488281 -14.097656 C 10.105469 -14.578125 6.914062 -14.253906 6.398438 -14.109375 C 6.398438 -14.109375 6.171875 -12.773438 6.679688 -11.199219 Z M 6.855469 -11.0625 "/></g></g></g><g fill="#ff00ff" fill-opacity="1"><g transform="translate(136.624153, 117.860704)"><g><path d="M 7.390625 -7.789062 C 7.3125 -7.019531 7.253906 -4.351562 6.824219 -4.324219 C 6.824219 -4.324219 6.425781 -4.167969 6.425781 -4.1875 C 6.425781 -4.214844 4.382812 -4.039062 4.175781 -4.214844 L 3.914062 -4.566406 L 3.738281 -5.570312 C 3.738281 -5.570312 3.535156 -7.917969 3.71875 -8.199219 C 3.71875 -8.199219 4.117188 -8.589844 6.183594 -8.589844 C 7.050781 -8.589844 7.457031 -8.558594 7.390625 -7.789062 Z M 10.933594 -14.195312 C 5.570312 -15.335938 1.957031 -14.195312 1.957031 -14.195312 L 1.304688 -13.535156 C 0.4375 -7.847656 2.035156 -1.363281 2.035156 -1.363281 L 2.21875 -0.691406 C 4.429688 1.488281 9.125 0.117188 9.125 0.144531 C 9.125 0.175781 9.960938 -0.664062 9.960938 -0.664062 C 12.25 -5.785156 11.316406 -13.710938 11.316406 -13.710938 Z M 10.933594 -14.195312 "/></g></g></g><g fill="#00ffff" fill-opacity="1"><g transform="translate(62.321822, 117.860704)"><g><path d="M 0.835938 -6.132812 C 1.070312 -6.152344 2.980469 -6.203125 4.089844 -6.25 C 4.097656 -4.019531 4.136719 -2.210938 4.253906 -0.738281 L 4.585938 -0.292969 L 6.972656 -0.0859375 C 6.972656 -0.0859375 7.058594 -3.039062 7.136719 -6.40625 C 9.054688 -6.503906 9.914062 -6.601562 10.875 -6.660156 C 11.070312 -7.898438 10.777344 -13.484375 10.710938 -14.390625 C 9.015625 -14.585938 2.445312 -15.101562 0.75 -14.886719 C 0.75 -14.886719 0.117188 -9.433594 0.835938 -6.132812 Z M 0.835938 -6.132812 "/></g></g></g><g fill="#00ffff" fill-opacity="1"><g transform="translate(73.732235, 117.860704)"><g><path d="M 10.078125 -5.589844 C 11.148438 -7.457031 11.578125 -12.007812 11.226562 -14.644531 C 11.226562 -14.644531 7.207031 -15.160156 4.070312 -14.78125 C 3.699219 -14.730469 2.589844 -14.605469 2.21875 -14.46875 L 1.703125 -13.964844 C 1.703125 -13.964844 1.898438 -7.515625 2.0625 -0.242188 L 4.175781 -0.0976562 L 4.597656 -0.300781 L 4.597656 -5.132812 C 5.289062 -5.074219 5.851562 -4.976562 6.71875 -4.925781 L 9.835938 0.105469 C 9.824219 0.117188 10.144531 0.136719 10.164062 0.15625 L 10.214844 0.125 L 11.355469 -0.527344 C 12.035156 -1.082031 12.414062 -1.585938 13.078125 -2.210938 C 12.453125 -3.183594 10.078125 -5.589844 10.078125 -5.589844 Z M 7.097656 -10.085938 C 7.097656 -10.085938 7.332031 -8.511719 7.109375 -7.535156 C 7.109375 -7.535156 5.25 -7.324219 4.964844 -7.351562 C 4.683594 -7.324219 4.109375 -7.4375 4.109375 -7.4375 C 4.109375 -7.4375 3.992188 -8.128906 4.011719 -8.394531 C 3.984375 -8.65625 4.109375 -10.039062 4.109375 -10.039062 Z M 7.097656 -10.085938 "/></g></g></g><g fill="#00ffff" fill-opacity="1"><g transform="translate(86.934044, 117.860704)"><g><path d="M 1.644531 -14.390625 C 1.1875 -9.804688 0.769531 -5.675781 0.527344 -0.691406 L 0.855469 -0.320312 L 5.539062 -0.0859375 L 5.6875 -3.085938 L 7.449219 -2.96875 C 7.820312 -0.410156 7.742188 -0.855469 7.917969 -0.222656 C 8.722656 -0.195312 10 -0.242188 10.703125 -0.242188 C 10.234375 -5.132812 9.53125 -9.542969 8.96875 -14.410156 C 8.023438 -14.5 4.070312 -14.984375 1.644531 -14.390625 Z M 5.132812 -5.578125 L 5.082031 -8.433594 C 5.082031 -8.433594 5.015625 -8.734375 7.34375 -8.570312 L 7.535156 -5.441406 Z M 5.132812 -5.578125 "/></g></g></g><g fill="#00ffff" fill-opacity="1"><g transform="translate(98.198419, 117.860704)"><g><path d="M 11.988281 -7.371094 L 9.84375 -8.472656 C 10.066406 -8.695312 10.925781 -9.339844 11.148438 -9.5625 C 11.949219 -11.390625 11.03125 -14.441406 11.03125 -14.441406 L 9.875 -14.617188 C 8.519531 -14.636719 4.664062 -15.210938 1.9375 -14.480469 L 1.800781 -14.324219 C 1.773438 -14.292969 1.9375 -4.527344 1.957031 -0.566406 L 7.15625 -0.242188 L 11.109375 -0.339844 L 11.460938 -0.527344 C 12.960938 -4.382812 11.988281 -7.371094 11.988281 -7.371094 Z M 4.15625 -9.472656 C 3.953125 -10.234375 4.109375 -12.035156 4.109375 -12.035156 C 4.109375 -12.035156 6.144531 -12.171875 6.464844 -12.171875 C 7.15625 -11.429688 7 -10.242188 6.464844 -9.339844 Z M 4.597656 -3.933594 C 4.332031 -4.90625 4.539062 -7.265625 4.539062 -7.265625 C 4.539062 -7.265625 7.1875 -7.4375 7.59375 -7.4375 C 8.5 -6.464844 8.285156 -4.925781 7.59375 -3.757812 Z M 4.597656 -3.933594 "/></g></g></g><g fill="#00ffff" fill-opacity="1"><g transform="translate(111.439171, 117.860704)"><g><path d="M 1.644531 -14.390625 C 1.1875 -9.804688 0.769531 -5.675781 0.527344 -0.691406 L 0.855469 -0.320312 L 5.539062 -0.0859375 L 5.6875 -3.085938 L 7.449219 -2.96875 C 7.820312 -0.410156 7.742188 -0.855469 7.917969 -0.222656 C 8.722656 -0.195312 10 -0.242188 10.703125 -0.242188 C 10.234375 -5.132812 9.53125 -9.542969 8.96875 -14.410156 C 8.023438 -14.5 4.070312 -14.984375 1.644531 -14.390625 Z M 5.132812 -5.578125 L 5.082031 -8.433594 C 5.082031 -8.433594 5.015625 -8.734375 7.34375 -8.570312 L 7.535156 -5.441406 Z M 5.132812 -5.578125 "/></g></g></g><g fill="#00ffff" fill-opacity="1"><g transform="translate(122.703546, 117.860704)"><g><path d="M 6.855469 -11.0625 C 6.855469 -11.0625 7.273438 -10.972656 7.800781 -11.03125 C 7.847656 -8.472656 7.976562 -4.363281 7.976562 -4.363281 C 7.976562 -4.363281 5.269531 -4.011719 5.257812 -4.175781 L 5.074219 -7.128906 C 3.699219 -7.265625 3.203125 -7.265625 1.199219 -7.109375 C 1.023438 -4.90625 0.867188 -3.183594 1.21875 -0.527344 C 1.21875 -0.527344 4.75 0.183594 7.886719 -0.195312 C 8.257812 -0.242188 9.855469 -0.566406 10.222656 -0.699219 L 10.738281 -1.207031 C 10.738281 -1.207031 10.59375 -4.78125 10.449219 -10.449219 C 10.886719 -10.496094 11.304688 -10.535156 11.65625 -10.554688 C 11.851562 -11.792969 11.488281 -14.097656 11.488281 -14.097656 C 10.105469 -14.578125 6.914062 -14.253906 6.398438 -14.109375 C 6.398438 -14.109375 6.171875 -12.773438 6.679688 -11.199219 Z M 6.855469 -11.0625 "/></g></g></g><g fill="#00ffff" fill-opacity="1"><g transform="translate(135.876148, 117.860704)"><g><path d="M 7.390625 -7.789062 C 7.3125 -7.019531 7.253906 -4.351562 6.824219 -4.324219 C 6.824219 -4.324219 6.425781 -4.167969 6.425781 -4.1875 C 6.425781 -4.214844 4.382812 -4.039062 4.175781 -4.214844 L 3.914062 -4.566406 L 3.738281 -5.570312 C 3.738281 -5.570312 3.535156 -7.917969 3.71875 -8.199219 C 3.71875 -8.199219 4.117188 -8.589844 6.183594 -8.589844 C 7.050781 -8.589844 7.457031 -8.558594 7.390625 -7.789062 Z M 10.933594 -14.195312 C 5.570312 -15.335938 1.957031 -14.195312 1.957031 -14.195312 L 1.304688 -13.535156 C 0.4375 -7.847656 2.035156 -1.363281 2.035156 -1.363281 L 2.21875 -0.691406 C 4.429688 1.488281 9.125 0.117188 9.125 0.144531 C 9.125 0.175781 9.960938 -0.664062 9.960938 -0.664062 C 12.25 -5.785156 11.316406 -13.710938 11.316406 -13.710938 Z M 10.933594 -14.195312 "/></g></g></g><g fill="#ffe865" fill-opacity="1"><g transform="translate(62.695825, 117.860704)"><g><path d="M 0.835938 -6.132812 C 1.070312 -6.152344 2.980469 -6.203125 4.089844 -6.25 C 4.097656 -4.019531 4.136719 -2.210938 4.253906 -0.738281 L 4.585938 -0.292969 L 6.972656 -0.0859375 C 6.972656 -0.0859375 7.058594 -3.039062 7.136719 -6.40625 C 9.054688 -6.503906 9.914062 -6.601562 10.875 -6.660156 C 11.070312 -7.898438 10.777344 -13.484375 10.710938 -14.390625 C 9.015625 -14.585938 2.445312 -15.101562 0.75 -14.886719 C 0.75 -14.886719 0.117188 -9.433594 0.835938 -6.132812 Z M 0.835938 -6.132812 "/></g></g></g><g fill="#ffe865" fill-opacity="1"><g transform="translate(74.106238, 117.860704)"><g><path d="M 10.078125 -5.589844 C 11.148438 -7.457031 11.578125 -12.007812 11.226562 -14.644531 C 11.226562 -14.644531 7.207031 -15.160156 4.070312 -14.78125 C 3.699219 -14.730469 2.589844 -14.605469 2.21875 -14.46875 L 1.703125 -13.964844 C 1.703125 -13.964844 1.898438 -7.515625 2.0625 -0.242188 L 4.175781 -0.0976562 L 4.597656 -0.300781 L 4.597656 -5.132812 C 5.289062 -5.074219 5.851562 -4.976562 6.71875 -4.925781 L 9.835938 0.105469 C 9.824219 0.117188 10.144531 0.136719 10.164062 0.15625 L 10.214844 0.125 L 11.355469 -0.527344 C 12.035156 -1.082031 12.414062 -1.585938 13.078125 -2.210938 C 12.453125 -3.183594 10.078125 -5.589844 10.078125 -5.589844 Z M 7.097656 -10.085938 C 7.097656 -10.085938 7.332031 -8.511719 7.109375 -7.535156 C 7.109375 -7.535156 5.25 -7.324219 4.964844 -7.351562 C 4.683594 -7.324219 4.109375 -7.4375 4.109375 -7.4375 C 4.109375 -7.4375 3.992188 -8.128906 4.011719 -8.394531 C 3.984375 -8.65625 4.109375 -10.039062 4.109375 -10.039062 Z M 7.097656 -10.085938 "/></g></g></g><g fill="#ffe865" fill-opacity="1"><g transform="translate(87.308046, 117.860704)"><g><path d="M 1.644531 -14.390625 C 1.1875 -9.804688 0.769531 -5.675781 0.527344 -0.691406 L 0.855469 -0.320312 L 5.539062 -0.0859375 L 5.6875 -3.085938 L 7.449219 -2.96875 C 7.820312 -0.410156 7.742188 -0.855469 7.917969 -0.222656 C 8.722656 -0.195312 10 -0.242188 10.703125 -0.242188 C 10.234375 -5.132812 9.53125 -9.542969 8.96875 -14.410156 C 8.023438 -14.5 4.070312 -14.984375 1.644531 -14.390625 Z M 5.132812 -5.578125 L 5.082031 -8.433594 C 5.082031 -8.433594 5.015625 -8.734375 7.34375 -8.570312 L 7.535156 -5.441406 Z M 5.132812 -5.578125 "/></g></g></g><g fill="#ffe865" fill-opacity="1"><g transform="translate(98.572422, 117.860704)"><g><path d="M 11.988281 -7.371094 L 9.84375 -8.472656 C 10.066406 -8.695312 10.925781 -9.339844 11.148438 -9.5625 C 11.949219 -11.390625 11.03125 -14.441406 11.03125 -14.441406 L 9.875 -14.617188 C 8.519531 -14.636719 4.664062 -15.210938 1.9375 -14.480469 L 1.800781 -14.324219 C 1.773438 -14.292969 1.9375 -4.527344 1.957031 -0.566406 L 7.15625 -0.242188 L 11.109375 -0.339844 L 11.460938 -0.527344 C 12.960938 -4.382812 11.988281 -7.371094 11.988281 -7.371094 Z M 4.15625 -9.472656 C 3.953125 -10.234375 4.109375 -12.035156 4.109375 -12.035156 C 4.109375 -12.035156 6.144531 -12.171875 6.464844 -12.171875 C 7.15625 -11.429688 7 -10.242188 6.464844 -9.339844 Z M 4.597656 -3.933594 C 4.332031 -4.90625 4.539062 -7.265625 4.539062 -7.265625 C 4.539062 -7.265625 7.1875 -7.4375 7.59375 -7.4375 C 8.5 -6.464844 8.285156 -4.925781 7.59375 -3.757812 Z M 4.597656 -3.933594 "/></g></g></g><g fill="#ffe865" fill-opacity="1"><g transform="translate(111.813174, 117.860704)"><g><path d="M 1.644531 -14.390625 C 1.1875 -9.804688 0.769531 -5.675781 0.527344 -0.691406 L 0.855469 -0.320312 L 5.539062 -0.0859375 L 5.6875 -3.085938 L 7.449219 -2.96875 C 7.820312 -0.410156 7.742188 -0.855469 7.917969 -0.222656 C 8.722656 -0.195312 10 -0.242188 10.703125 -0.242188 C 10.234375 -5.132812 9.53125 -9.542969 8.96875 -14.410156 C 8.023438 -14.5 4.070312 -14.984375 1.644531 -14.390625 Z M 5.132812 -5.578125 L 5.082031 -8.433594 C 5.082031 -8.433594 5.015625 -8.734375 7.34375 -8.570312 L 7.535156 -5.441406 Z M 5.132812 -5.578125 "/></g></g></g><g fill="#ffe865" fill-opacity="1"><g transform="translate(123.077549, 117.860704)"><g><path d="M 6.855469 -11.0625 C 6.855469 -11.0625 7.273438 -10.972656 7.800781 -11.03125 C 7.847656 -8.472656 7.976562 -4.363281 7.976562 -4.363281 C 7.976562 -4.363281 5.269531 -4.011719 5.257812 -4.175781 L 5.074219 -7.128906 C 3.699219 -7.265625 3.203125 -7.265625 1.199219 -7.109375 C 1.023438 -4.90625 0.867188 -3.183594 1.21875 -0.527344 C 1.21875 -0.527344 4.75 0.183594 7.886719 -0.195312 C 8.257812 -0.242188 9.855469 -0.566406 10.222656 -0.699219 L 10.738281 -1.207031 C 10.738281 -1.207031 10.59375 -4.78125 10.449219 -10.449219 C 10.886719 -10.496094 11.304688 -10.535156 11.65625 -10.554688 C 11.851562 -11.792969 11.488281 -14.097656 11.488281 -14.097656 C 10.105469 -14.578125 6.914062 -14.253906 6.398438 -14.109375 C 6.398438 -14.109375 6.171875 -12.773438 6.679688 -11.199219 Z M 6.855469 -11.0625 "/></g></g></g><g fill="#ffe865" fill-opacity="1"><g transform="translate(136.250151, 117.860704)"><g><path d="M 7.390625 -7.789062 C 7.3125 -7.019531 7.253906 -4.351562 6.824219 -4.324219 C 6.824219 -4.324219 6.425781 -4.167969 6.425781 -4.1875 C 6.425781 -4.214844 4.382812 -4.039062 4.175781 -4.214844 L 3.914062 -4.566406 L 3.738281 -5.570312 C 3.738281 -5.570312 3.535156 -7.917969 3.71875 -8.199219 C 3.71875 -8.199219 4.117188 -8.589844 6.183594 -8.589844 C 7.050781 -8.589844 7.457031 -8.558594 7.390625 -7.789062 Z M 10.933594 -14.195312 C 5.570312 -15.335938 1.957031 -14.195312 1.957031 -14.195312 L 1.304688 -13.535156 C 0.4375 -7.847656 2.035156 -1.363281 2.035156 -1.363281 L 2.21875 -0.691406 C 4.429688 1.488281 9.125 0.117188 9.125 0.144531 C 9.125 0.175781 9.960938 -0.664062 9.960938 -0.664062 C 12.25 -5.785156 11.316406 -13.710938 11.316406 -13.710938 Z M 10.933594 -14.195312 "/></g></g></g><g fill="#ff00ff" fill-opacity="1"><g transform="translate(93.200414, 137.30884)"><g><path d="M 11.179688 -10.847656 C 11.675781 -12.375 11.226562 -14.578125 11.226562 -14.578125 L 10.613281 -14.617188 L 2.257812 -14.402344 C 2.257812 -14.402344 1.898438 -13.621094 1.859375 -13 C 1.820312 -12.375 1.761719 -2.484375 2.199219 -1.316406 C 2.414062 -0.738281 2.609375 -0.144531 2.824219 -0.0976562 C 3.039062 -0.046875 5.511719 0.144531 8.6875 0.117188 C 11.859375 0.0859375 11.160156 0.164062 11.160156 0.164062 L 11.0625 -2.601562 C 11.0625 -2.601562 10.605469 -2.902344 10.625 -2.882812 C 10.644531 -2.863281 10.894531 -2.84375 10.894531 -2.84375 L 6.144531 -2.882812 L 5.902344 -3.144531 L 5.96875 -5.609375 C 9.144531 -5.636719 10.769531 -5.753906 10.769531 -5.753906 L 10.769531 -6.960938 C 10.769531 -6.960938 10.605469 -7.945312 10.625 -7.925781 C 10.644531 -7.90625 9.433594 -7.886719 9.433594 -7.886719 L 6.914062 -7.878906 C 6.484375 -9.085938 6.601562 -10.566406 6.601562 -10.566406 C 10.535156 -10.757812 11.179688 -10.847656 11.179688 -10.847656 Z M 11.179688 -10.847656 "/></g></g></g><g fill="#ff00ff" fill-opacity="1"><g transform="translate(106.178298, 137.30884)"><g><path d="M 8.78125 -6.203125 C 8.78125 -6.203125 7.828125 -8.550781 7.742188 -8.742188 C 7.652344 -8.9375 5.6875 -12.910156 5.6875 -12.910156 L 5.675781 -12.921875 C 4.117188 -13.28125 2.140625 -13.195312 2.140625 -13.195312 L 1.65625 -13.046875 C 1.65625 -13.046875 1.402344 -4.539062 1.722656 -0.351562 L 2.054688 0.0976562 L 4.519531 0.203125 L 4.828125 0.105469 C 4.828125 0.105469 4.886719 -1.878906 4.878906 -2.082031 C 4.878906 -2.289062 4.769531 -5.171875 4.769531 -5.171875 C 4.769531 -5.171875 6.445312 -2.191406 6.554688 -2.015625 C 6.660156 -1.839844 7.898438 0.195312 7.898438 0.195312 L 11.644531 0.300781 C 11.644531 0.300781 12.035156 -14.449219 11.910156 -14.480469 C 10.351562 -14.839844 9.347656 -14.75 9.347656 -14.75 C 9.347656 -14.75 8.910156 -14.730469 8.859375 -14.605469 Z M 8.78125 -6.203125 "/></g></g></g><g fill="#00ffff" fill-opacity="1"><g transform="translate(92.452409, 137.30884)"><g><path d="M 11.179688 -10.847656 C 11.675781 -12.375 11.226562 -14.578125 11.226562 -14.578125 L 10.613281 -14.617188 L 2.257812 -14.402344 C 2.257812 -14.402344 1.898438 -13.621094 1.859375 -13 C 1.820312 -12.375 1.761719 -2.484375 2.199219 -1.316406 C 2.414062 -0.738281 2.609375 -0.144531 2.824219 -0.0976562 C 3.039062 -0.046875 5.511719 0.144531 8.6875 0.117188 C 11.859375 0.0859375 11.160156 0.164062 11.160156 0.164062 L 11.0625 -2.601562 C 11.0625 -2.601562 10.605469 -2.902344 10.625 -2.882812 C 10.644531 -2.863281 10.894531 -2.84375 10.894531 -2.84375 L 6.144531 -2.882812 L 5.902344 -3.144531 L 5.96875 -5.609375 C 9.144531 -5.636719 10.769531 -5.753906 10.769531 -5.753906 L 10.769531 -6.960938 C 10.769531 -6.960938 10.605469 -7.945312 10.625 -7.925781 C 10.644531 -7.90625 9.433594 -7.886719 9.433594 -7.886719 L 6.914062 -7.878906 C 6.484375 -9.085938 6.601562 -10.566406 6.601562 -10.566406 C 10.535156 -10.757812 11.179688 -10.847656 11.179688 -10.847656 Z M 11.179688 -10.847656 "/></g></g></g><g fill="#00ffff" fill-opacity="1"><g transform="translate(105.430293, 137.30884)"><g><path d="M 8.78125 -6.203125 C 8.78125 -6.203125 7.828125 -8.550781 7.742188 -8.742188 C 7.652344 -8.9375 5.6875 -12.910156 5.6875 -12.910156 L 5.675781 -12.921875 C 4.117188 -13.28125 2.140625 -13.195312 2.140625 -13.195312 L 1.65625 -13.046875 C 1.65625 -13.046875 1.402344 -4.539062 1.722656 -0.351562 L 2.054688 0.0976562 L 4.519531 0.203125 L 4.828125 0.105469 C 4.828125 0.105469 4.886719 -1.878906 4.878906 -2.082031 C 4.878906 -2.289062 4.769531 -5.171875 4.769531 -5.171875 C 4.769531 -5.171875 6.445312 -2.191406 6.554688 -2.015625 C 6.660156 -1.839844 7.898438 0.195312 7.898438 0.195312 L 11.644531 0.300781 C 11.644531 0.300781 12.035156 -14.449219 11.910156 -14.480469 C 10.351562 -14.839844 9.347656 -14.75 9.347656 -14.75 C 9.347656 -14.75 8.910156 -14.730469 8.859375 -14.605469 Z M 8.78125 -6.203125 "/></g></g></g><g fill="#ffe865" fill-opacity="1"><g transform="translate(92.826411, 137.30884)"><g><path d="M 11.179688 -10.847656 C 11.675781 -12.375 11.226562 -14.578125 11.226562 -14.578125 L 10.613281 -14.617188 L 2.257812 -14.402344 C 2.257812 -14.402344 1.898438 -13.621094 1.859375 -13 C 1.820312 -12.375 1.761719 -2.484375 2.199219 -1.316406 C 2.414062 -0.738281 2.609375 -0.144531 2.824219 -0.0976562 C 3.039062 -0.046875 5.511719 0.144531 8.6875 0.117188 C 11.859375 0.0859375 11.160156 0.164062 11.160156 0.164062 L 11.0625 -2.601562 C 11.0625 -2.601562 10.605469 -2.902344 10.625 -2.882812 C 10.644531 -2.863281 10.894531 -2.84375 10.894531 -2.84375 L 6.144531 -2.882812 L 5.902344 -3.144531 L 5.96875 -5.609375 C 9.144531 -5.636719 10.769531 -5.753906 10.769531 -5.753906 L 10.769531 -6.960938 C 10.769531 -6.960938 10.605469 -7.945312 10.625 -7.925781 C 10.644531 -7.90625 9.433594 -7.886719 9.433594 -7.886719 L 6.914062 -7.878906 C 6.484375 -9.085938 6.601562 -10.566406 6.601562 -10.566406 C 10.535156 -10.757812 11.179688 -10.847656 11.179688 -10.847656 Z M 11.179688 -10.847656 "/></g></g></g><g fill="#ffe865" fill-opacity="1"><g transform="translate(105.804296, 137.30884)"><g><path d="M 8.78125 -6.203125 C 8.78125 -6.203125 7.828125 -8.550781 7.742188 -8.742188 C 7.652344 -8.9375 5.6875 -12.910156 5.6875 -12.910156 L 5.675781 -12.921875 C 4.117188 -13.28125 2.140625 -13.195312 2.140625 -13.195312 L 1.65625 -13.046875 C 1.65625 -13.046875 1.402344 -4.539062 1.722656 -0.351562 L 2.054688 0.0976562 L 4.519531 0.203125 L 4.828125 0.105469 C 4.828125 0.105469 4.886719 -1.878906 4.878906 -2.082031 C 4.878906 -2.289062 4.769531 -5.171875 4.769531 -5.171875 C 4.769531 -5.171875 6.445312 -2.191406 6.554688 -2.015625 C 6.660156 -1.839844 7.898438 0.195312 7.898438 0.195312 L 11.644531 0.300781 C 11.644531 0.300781 12.035156 -14.449219 11.910156 -14.480469 C 10.351562 -14.839844 9.347656 -14.75 9.347656 -14.75 C 9.347656 -14.75 8.910156 -14.730469 8.859375 -14.605469 Z M 8.78125 -6.203125 "/></g></g></g><g fill="#ff00ff" fill-opacity="1"><g transform="translate(69.334371, 156.756977)"><g><path d="M 11.179688 -10.847656 C 11.675781 -12.375 11.226562 -14.578125 11.226562 -14.578125 L 10.613281 -14.617188 L 2.257812 -14.402344 C 2.257812 -14.402344 1.898438 -13.621094 1.859375 -13 C 1.820312 -12.375 1.761719 -2.484375 2.199219 -1.316406 C 2.414062 -0.738281 2.609375 -0.144531 2.824219 -0.0976562 C 3.039062 -0.046875 5.511719 0.144531 8.6875 0.117188 C 11.859375 0.0859375 11.160156 0.164062 11.160156 0.164062 L 11.0625 -2.601562 C 11.0625 -2.601562 10.605469 -2.902344 10.625 -2.882812 C 10.644531 -2.863281 10.894531 -2.84375 10.894531 -2.84375 L 6.144531 -2.882812 L 5.902344 -3.144531 L 5.96875 -5.609375 C 9.144531 -5.636719 10.769531 -5.753906 10.769531 -5.753906 L 10.769531 -6.960938 C 10.769531 -6.960938 10.605469 -7.945312 10.625 -7.925781 C 10.644531 -7.90625 9.433594 -7.886719 9.433594 -7.886719 L 6.914062 -7.878906 C 6.484375 -9.085938 6.601562 -10.566406 6.601562 -10.566406 C 10.535156 -10.757812 11.179688 -10.847656 11.179688 -10.847656 Z M 11.179688 -10.847656 "/></g></g></g><g fill="#ff00ff" fill-opacity="1"><g transform="translate(82.312256, 156.756977)"><g><path d="M 1.929688 -1.082031 C 4.371094 0.195312 8.667969 -0.457031 8.976562 -1.753906 C 8.976562 -1.753906 9.027344 -1.96875 9.027344 -1.957031 L 10.46875 -1.089844 L 10.683594 -1.089844 L 13.417969 -2.960938 L 12.667969 -4.402344 L 12.308594 -4.5 C 12.308594 -4.5 11.296875 -3.953125 11.121094 -3.933594 C 10.953125 -3.855469 10.625 -3.894531 10.664062 -3.875 C 11.625 -8.558594 11.316406 -13.710938 11.316406 -13.710938 L 10.933594 -14.195312 C 5.570312 -15.335938 1.859375 -14.195312 1.859375 -14.195312 L 1.207031 -13.535156 C 0.339844 -7.847656 1.742188 -1.753906 1.742188 -1.753906 Z M 7.292969 -7.789062 C 7.214844 -7.019531 7.15625 -4.351562 6.726562 -4.324219 C 6.726562 -4.324219 6.328125 -4.167969 6.328125 -4.1875 C 6.328125 -4.214844 4.285156 -4.039062 4.078125 -4.214844 L 3.816406 -4.566406 L 3.640625 -5.570312 C 3.640625 -5.570312 3.4375 -7.917969 3.621094 -8.199219 C 3.621094 -8.199219 4.019531 -8.589844 6.085938 -8.589844 C 6.953125 -8.589844 7.363281 -8.558594 7.292969 -7.789062 Z M 7.292969 -7.789062 "/></g></g></g><g fill="#ff00ff" fill-opacity="1"><g transform="translate(95.864555, 156.756977)"><g><path d="M 1.988281 -0.566406 L 12.425781 -0.183594 C 12.425781 -0.183594 12.910156 -14.253906 12.785156 -14.285156 C 11.226562 -14.644531 10.222656 -14.558594 10.222656 -14.558594 L 9.738281 -14.410156 C 9.738281 -14.410156 9.609375 -9.5625 9.648438 -5.132812 L 7.167969 -4.964844 C 7.167969 -5.539062 7.390625 -12.160156 7.351562 -13.757812 C 6.824219 -13.894531 3.261719 -14.003906 1.96875 -13.914062 C 1.820312 -11.753906 1.871094 -1.65625 1.800781 -0.90625 Z M 1.988281 -0.566406 "/></g></g></g><g fill="#ff00ff" fill-opacity="1"><g transform="translate(109.757609, 156.756977)"><g><path d="M 1.324219 -4.402344 C 0.710938 -3.4375 1.042969 -0.125 1.042969 -0.125 C 1.558594 0.0195312 5.238281 0.339844 6.621094 -0.136719 C 6.621094 -0.136719 6.980469 -2.347656 6.785156 -3.582031 C 6.523438 -3.601562 5.480469 -3.652344 5.230469 -3.679688 C 5.289062 -5.726562 5.363281 -8.65625 5.394531 -10.371094 C 5.667969 -10.398438 6.933594 -10.449219 7.175781 -10.457031 C 7.371094 -11.695312 7.011719 -14.78125 7.011719 -14.78125 C 5.628906 -15.257812 1.558594 -14.9375 1.042969 -14.789062 C 1.042969 -14.789062 1.121094 -10.097656 1.324219 -9.933594 L 1.5 -9.796875 L 2.792969 -9.757812 C 2.746094 -7.984375 2.785156 -4.390625 2.785156 -4.390625 Z M 1.324219 -4.402344 "/></g></g></g><g fill="#ff00ff" fill-opacity="1"><g transform="translate(118.257004, 156.756977)"><g><path d="M 7.097656 -10.085938 C 7.097656 -10.085938 7.332031 -8.511719 7.109375 -7.535156 C 7.109375 -7.535156 5.25 -7.324219 4.964844 -7.351562 C 4.683594 -7.324219 4.109375 -7.4375 4.109375 -7.4375 C 4.109375 -7.4375 3.992188 -8.128906 4.011719 -8.394531 C 3.984375 -8.65625 4.109375 -10.039062 4.109375 -10.039062 Z M 4.597656 -5.132812 C 6.007812 -5.015625 6.902344 -4.730469 11.050781 -5.042969 C 11.226562 -7.246094 11.578125 -11.792969 11.226562 -14.449219 C 11.226562 -14.449219 7.691406 -15.160156 4.558594 -14.78125 C 4.1875 -14.730469 2.589844 -14.410156 2.21875 -14.273438 L 1.703125 -13.769531 C 1.703125 -13.769531 1.898438 -7.515625 2.0625 -0.242188 L 4.175781 -0.0976562 L 4.597656 -0.300781 Z M 4.597656 -5.132812 "/></g></g></g><g fill="#ff00ff" fill-opacity="1"><g transform="translate(130.358662, 156.756977)"><g><path d="M 7.390625 -7.789062 C 7.3125 -7.019531 7.253906 -4.351562 6.824219 -4.324219 C 6.824219 -4.324219 6.425781 -4.167969 6.425781 -4.1875 C 6.425781 -4.214844 4.382812 -4.039062 4.175781 -4.214844 L 3.914062 -4.566406 L 3.738281 -5.570312 C 3.738281 -5.570312 3.535156 -7.917969 3.71875 -8.199219 C 3.71875 -8.199219 4.117188 -8.589844 6.183594 -8.589844 C 7.050781 -8.589844 7.457031 -8.558594 7.390625 -7.789062 Z M 10.933594 -14.195312 C 5.570312 -15.335938 1.957031 -14.195312 1.957031 -14.195312 L 1.304688 -13.535156 C 0.4375 -7.847656 2.035156 -1.363281 2.035156 -1.363281 L 2.21875 -0.691406 C 4.429688 1.488281 9.125 0.117188 9.125 0.144531 C 9.125 0.175781 9.960938 -0.664062 9.960938 -0.664062 C 12.25 -5.785156 11.316406 -13.710938 11.316406 -13.710938 Z M 10.933594 -14.195312 "/></g></g></g><g fill="#00ffff" fill-opacity="1"><g transform="translate(68.586366, 156.756977)"><g><path d="M 11.179688 -10.847656 C 11.675781 -12.375 11.226562 -14.578125 11.226562 -14.578125 L 10.613281 -14.617188 L 2.257812 -14.402344 C 2.257812 -14.402344 1.898438 -13.621094 1.859375 -13 C 1.820312 -12.375 1.761719 -2.484375 2.199219 -1.316406 C 2.414062 -0.738281 2.609375 -0.144531 2.824219 -0.0976562 C 3.039062 -0.046875 5.511719 0.144531 8.6875 0.117188 C 11.859375 0.0859375 11.160156 0.164062 11.160156 0.164062 L 11.0625 -2.601562 C 11.0625 -2.601562 10.605469 -2.902344 10.625 -2.882812 C 10.644531 -2.863281 10.894531 -2.84375 10.894531 -2.84375 L 6.144531 -2.882812 L 5.902344 -3.144531 L 5.96875 -5.609375 C 9.144531 -5.636719 10.769531 -5.753906 10.769531 -5.753906 L 10.769531 -6.960938 C 10.769531 -6.960938 10.605469 -7.945312 10.625 -7.925781 C 10.644531 -7.90625 9.433594 -7.886719 9.433594 -7.886719 L 6.914062 -7.878906 C 6.484375 -9.085938 6.601562 -10.566406 6.601562 -10.566406 C 10.535156 -10.757812 11.179688 -10.847656 11.179688 -10.847656 Z M 11.179688 -10.847656 "/></g></g></g><g fill="#00ffff" fill-opacity="1"><g transform="translate(81.56425, 156.756977)"><g><path d="M 1.929688 -1.082031 C 4.371094 0.195312 8.667969 -0.457031 8.976562 -1.753906 C 8.976562 -1.753906 9.027344 -1.96875 9.027344 -1.957031 L 10.46875 -1.089844 L 10.683594 -1.089844 L 13.417969 -2.960938 L 12.667969 -4.402344 L 12.308594 -4.5 C 12.308594 -4.5 11.296875 -3.953125 11.121094 -3.933594 C 10.953125 -3.855469 10.625 -3.894531 10.664062 -3.875 C 11.625 -8.558594 11.316406 -13.710938 11.316406 -13.710938 L 10.933594 -14.195312 C 5.570312 -15.335938 1.859375 -14.195312 1.859375 -14.195312 L 1.207031 -13.535156 C 0.339844 -7.847656 1.742188 -1.753906 1.742188 -1.753906 Z M 7.292969 -7.789062 C 7.214844 -7.019531 7.15625 -4.351562 6.726562 -4.324219 C 6.726562 -4.324219 6.328125 -4.167969 6.328125 -4.1875 C 6.328125 -4.214844 4.285156 -4.039062 4.078125 -4.214844 L 3.816406 -4.566406 L 3.640625 -5.570312 C 3.640625 -5.570312 3.4375 -7.917969 3.621094 -8.199219 C 3.621094 -8.199219 4.019531 -8.589844 6.085938 -8.589844 C 6.953125 -8.589844 7.363281 -8.558594 7.292969 -7.789062 Z M 7.292969 -7.789062 "/></g></g></g><g fill="#00ffff" fill-opacity="1"><g transform="translate(95.11655, 156.756977)"><g><path d="M 1.988281 -0.566406 L 12.425781 -0.183594 C 12.425781 -0.183594 12.910156 -14.253906 12.785156 -14.285156 C 11.226562 -14.644531 10.222656 -14.558594 10.222656 -14.558594 L 9.738281 -14.410156 C 9.738281 -14.410156 9.609375 -9.5625 9.648438 -5.132812 L 7.167969 -4.964844 C 7.167969 -5.539062 7.390625 -12.160156 7.351562 -13.757812 C 6.824219 -13.894531 3.261719 -14.003906 1.96875 -13.914062 C 1.820312 -11.753906 1.871094 -1.65625 1.800781 -0.90625 Z M 1.988281 -0.566406 "/></g></g></g><g fill="#00ffff" fill-opacity="1"><g transform="translate(109.009604, 156.756977)"><g><path d="M 1.324219 -4.402344 C 0.710938 -3.4375 1.042969 -0.125 1.042969 -0.125 C 1.558594 0.0195312 5.238281 0.339844 6.621094 -0.136719 C 6.621094 -0.136719 6.980469 -2.347656 6.785156 -3.582031 C 6.523438 -3.601562 5.480469 -3.652344 5.230469 -3.679688 C 5.289062 -5.726562 5.363281 -8.65625 5.394531 -10.371094 C 5.667969 -10.398438 6.933594 -10.449219 7.175781 -10.457031 C 7.371094 -11.695312 7.011719 -14.78125 7.011719 -14.78125 C 5.628906 -15.257812 1.558594 -14.9375 1.042969 -14.789062 C 1.042969 -14.789062 1.121094 -10.097656 1.324219 -9.933594 L 1.5 -9.796875 L 2.792969 -9.757812 C 2.746094 -7.984375 2.785156 -4.390625 2.785156 -4.390625 Z M 1.324219 -4.402344 "/></g></g></g><g fill="#00ffff" fill-opacity="1"><g transform="translate(117.508998, 156.756977)"><g><path d="M 7.097656 -10.085938 C 7.097656 -10.085938 7.332031 -8.511719 7.109375 -7.535156 C 7.109375 -7.535156 5.25 -7.324219 4.964844 -7.351562 C 4.683594 -7.324219 4.109375 -7.4375 4.109375 -7.4375 C 4.109375 -7.4375 3.992188 -8.128906 4.011719 -8.394531 C 3.984375 -8.65625 4.109375 -10.039062 4.109375 -10.039062 Z M 4.597656 -5.132812 C 6.007812 -5.015625 6.902344 -4.730469 11.050781 -5.042969 C 11.226562 -7.246094 11.578125 -11.792969 11.226562 -14.449219 C 11.226562 -14.449219 7.691406 -15.160156 4.558594 -14.78125 C 4.1875 -14.730469 2.589844 -14.410156 2.21875 -14.273438 L 1.703125 -13.769531 C 1.703125 -13.769531 1.898438 -7.515625 2.0625 -0.242188 L 4.175781 -0.0976562 L 4.597656 -0.300781 Z M 4.597656 -5.132812 "/></g></g></g><g fill="#00ffff" fill-opacity="1"><g transform="translate(129.610656, 156.756977)"><g><path d="M 7.390625 -7.789062 C 7.3125 -7.019531 7.253906 -4.351562 6.824219 -4.324219 C 6.824219 -4.324219 6.425781 -4.167969 6.425781 -4.1875 C 6.425781 -4.214844 4.382812 -4.039062 4.175781 -4.214844 L 3.914062 -4.566406 L 3.738281 -5.570312 C 3.738281 -5.570312 3.535156 -7.917969 3.71875 -8.199219 C 3.71875 -8.199219 4.117188 -8.589844 6.183594 -8.589844 C 7.050781 -8.589844 7.457031 -8.558594 7.390625 -7.789062 Z M 10.933594 -14.195312 C 5.570312 -15.335938 1.957031 -14.195312 1.957031 -14.195312 L 1.304688 -13.535156 C 0.4375 -7.847656 2.035156 -1.363281 2.035156 -1.363281 L 2.21875 -0.691406 C 4.429688 1.488281 9.125 0.117188 9.125 0.144531 C 9.125 0.175781 9.960938 -0.664062 9.960938 -0.664062 C 12.25 -5.785156 11.316406 -13.710938 11.316406 -13.710938 Z M 10.933594 -14.195312 "/></g></g></g><g fill="#ffe865" fill-opacity="1"><g transform="translate(68.960369, 156.756977)"><g><path d="M 11.179688 -10.847656 C 11.675781 -12.375 11.226562 -14.578125 11.226562 -14.578125 L 10.613281 -14.617188 L 2.257812 -14.402344 C 2.257812 -14.402344 1.898438 -13.621094 1.859375 -13 C 1.820312 -12.375 1.761719 -2.484375 2.199219 -1.316406 C 2.414062 -0.738281 2.609375 -0.144531 2.824219 -0.0976562 C 3.039062 -0.046875 5.511719 0.144531 8.6875 0.117188 C 11.859375 0.0859375 11.160156 0.164062 11.160156 0.164062 L 11.0625 -2.601562 C 11.0625 -2.601562 10.605469 -2.902344 10.625 -2.882812 C 10.644531 -2.863281 10.894531 -2.84375 10.894531 -2.84375 L 6.144531 -2.882812 L 5.902344 -3.144531 L 5.96875 -5.609375 C 9.144531 -5.636719 10.769531 -5.753906 10.769531 -5.753906 L 10.769531 -6.960938 C 10.769531 -6.960938 10.605469 -7.945312 10.625 -7.925781 C 10.644531 -7.90625 9.433594 -7.886719 9.433594 -7.886719 L 6.914062 -7.878906 C 6.484375 -9.085938 6.601562 -10.566406 6.601562 -10.566406 C 10.535156 -10.757812 11.179688 -10.847656 11.179688 -10.847656 Z M 11.179688 -10.847656 "/></g></g></g><g fill="#ffe865" fill-opacity="1"><g transform="translate(81.938253, 156.756977)"><g><path d="M 1.929688 -1.082031 C 4.371094 0.195312 8.667969 -0.457031 8.976562 -1.753906 C 8.976562 -1.753906 9.027344 -1.96875 9.027344 -1.957031 L 10.46875 -1.089844 L 10.683594 -1.089844 L 13.417969 -2.960938 L 12.667969 -4.402344 L 12.308594 -4.5 C 12.308594 -4.5 11.296875 -3.953125 11.121094 -3.933594 C 10.953125 -3.855469 10.625 -3.894531 10.664062 -3.875 C 11.625 -8.558594 11.316406 -13.710938 11.316406 -13.710938 L 10.933594 -14.195312 C 5.570312 -15.335938 1.859375 -14.195312 1.859375 -14.195312 L 1.207031 -13.535156 C 0.339844 -7.847656 1.742188 -1.753906 1.742188 -1.753906 Z M 7.292969 -7.789062 C 7.214844 -7.019531 7.15625 -4.351562 6.726562 -4.324219 C 6.726562 -4.324219 6.328125 -4.167969 6.328125 -4.1875 C 6.328125 -4.214844 4.285156 -4.039062 4.078125 -4.214844 L 3.816406 -4.566406 L 3.640625 -5.570312 C 3.640625 -5.570312 3.4375 -7.917969 3.621094 -8.199219 C 3.621094 -8.199219 4.019531 -8.589844 6.085938 -8.589844 C 6.953125 -8.589844 7.363281 -8.558594 7.292969 -7.789062 Z M 7.292969 -7.789062 "/></g></g></g><g fill="#ffe865" fill-opacity="1"><g transform="translate(95.490552, 156.756977)"><g><path d="M 1.988281 -0.566406 L 12.425781 -0.183594 C 12.425781 -0.183594 12.910156 -14.253906 12.785156 -14.285156 C 11.226562 -14.644531 10.222656 -14.558594 10.222656 -14.558594 L 9.738281 -14.410156 C 9.738281 -14.410156 9.609375 -9.5625 9.648438 -5.132812 L 7.167969 -4.964844 C 7.167969 -5.539062 7.390625 -12.160156 7.351562 -13.757812 C 6.824219 -13.894531 3.261719 -14.003906 1.96875 -13.914062 C 1.820312 -11.753906 1.871094 -1.65625 1.800781 -0.90625 Z M 1.988281 -0.566406 "/></g></g></g><g fill="#ffe865" fill-opacity="1"><g transform="translate(109.383606, 156.756977)"><g><path d="M 1.324219 -4.402344 C 0.710938 -3.4375 1.042969 -0.125 1.042969 -0.125 C 1.558594 0.0195312 5.238281 0.339844 6.621094 -0.136719 C 6.621094 -0.136719 6.980469 -2.347656 6.785156 -3.582031 C 6.523438 -3.601562 5.480469 -3.652344 5.230469 -3.679688 C 5.289062 -5.726562 5.363281 -8.65625 5.394531 -10.371094 C 5.667969 -10.398438 6.933594 -10.449219 7.175781 -10.457031 C 7.371094 -11.695312 7.011719 -14.78125 7.011719 -14.78125 C 5.628906 -15.257812 1.558594 -14.9375 1.042969 -14.789062 C 1.042969 -14.789062 1.121094 -10.097656 1.324219 -9.933594 L 1.5 -9.796875 L 2.792969 -9.757812 C 2.746094 -7.984375 2.785156 -4.390625 2.785156 -4.390625 Z M 1.324219 -4.402344 "/></g></g></g><g fill="#ffe865" fill-opacity="1"><g transform="translate(117.883001, 156.756977)"><g><path d="M 7.097656 -10.085938 C 7.097656 -10.085938 7.332031 -8.511719 7.109375 -7.535156 C 7.109375 -7.535156 5.25 -7.324219 4.964844 -7.351562 C 4.683594 -7.324219 4.109375 -7.4375 4.109375 -7.4375 C 4.109375 -7.4375 3.992188 -8.128906 4.011719 -8.394531 C 3.984375 -8.65625 4.109375 -10.039062 4.109375 -10.039062 Z M 4.597656 -5.132812 C 6.007812 -5.015625 6.902344 -4.730469 11.050781 -5.042969 C 11.226562 -7.246094 11.578125 -11.792969 11.226562 -14.449219 C 11.226562 -14.449219 7.691406 -15.160156 4.558594 -14.78125 C 4.1875 -14.730469 2.589844 -14.410156 2.21875 -14.273438 L 1.703125 -13.769531 C 1.703125 -13.769531 1.898438 -7.515625 2.0625 -0.242188 L 4.175781 -0.0976562 L 4.597656 -0.300781 Z M 4.597656 -5.132812 "/></g></g></g><g fill="#ffe865" fill-opacity="1"><g transform="translate(129.984659, 156.756977)"><g><path d="M 7.390625 -7.789062 C 7.3125 -7.019531 7.253906 -4.351562 6.824219 -4.324219 C 6.824219 -4.324219 6.425781 -4.167969 6.425781 -4.1875 C 6.425781 -4.214844 4.382812 -4.039062 4.175781 -4.214844 L 3.914062 -4.566406 L 3.738281 -5.570312 C 3.738281 -5.570312 3.535156 -7.917969 3.71875 -8.199219 C 3.71875 -8.199219 4.117188 -8.589844 6.183594 -8.589844 C 7.050781 -8.589844 7.457031 -8.558594 7.390625 -7.789062 Z M 10.933594 -14.195312 C 5.570312 -15.335938 1.957031 -14.195312 1.957031 -14.195312 L 1.304688 -13.535156 C 0.4375 -7.847656 2.035156 -1.363281 2.035156 -1.363281 L 2.21875 -0.691406 C 4.429688 1.488281 9.125 0.117188 9.125 0.144531 C 9.125 0.175781 9.960938 -0.664062 9.960938 -0.664062 C 12.25 -5.785156 11.316406 -13.710938 11.316406 -13.710938 Z M 10.933594 -14.195312 "/></g></g></g></svg>